#!OML:ASF H:\Terrain\Patient Classification 1\Walking\liu\liu.ASF
:FULLY-SPECIFIED
:DEGREES
404
root 14.521920 25.319702 30.653851 9.807885 -2.411580 -11.528490
lowerback -12.291375 4.896810 5.035830
upperback 0.396389 5.738790 6.180540
thorax 7.212825 2.888400 4.319835
lowerneck -28.972950 -9.194639 -20.094000
upperneck 31.823551 -11.744130 19.609800
head 16.722900 -4.733340 8.738445
rclavicle 0.000000 -0.000000
rhumerus -40.516651 22.602600 -127.248001
rradius 59.238449
rwrist -26.825550
rhand -45.390301 -31.559849
rfingers 10.687531
rthumb -5.353110 -76.484550
lclavicle 0.000000 -0.000000
lhumerus -80.195251 -13.907385 144.555450
lradius 40.654350
lwrist 12.350970
lhand -15.542700 -39.397350
lfingers 10.687531
lthumb 23.452799 4.684950
rfemur 26.347500 8.853826 49.912800
rtibia -0.000000
rfoot -11.648955 10.423515
rtoes -15.408151
lfemur -64.657806 -5.228370 -13.032675
ltibia 31.586250
lfoot -24.112650 20.291849
ltoes -18.742649
405
root 14.547255 25.290150 30.915001 9.994860 -2.454510 -11.326950
lowerback -12.810030 4.928460 4.755615
upperback 0.374571 5.784225 6.046380
thorax 7.470975 2.904570 4.376145
lowerneck -28.655701 -9.103320 -20.158350
upperneck 31.565250 -11.667555 19.834200
head 16.567801 -4.690020 8.841360
rclavicle 0.000000 0.000000
rhumerus -40.959152 22.636799 -127.630348
rradius 58.791451
rwrist -26.830952
rhand -44.841599 -32.918251
rfingers 10.687531
rthumb -4.823220 -77.851501
lclavicle 0.000000 0.000000
lhumerus -80.161049 -13.812241 144.384598
lradius 40.229248
lwrist 11.716605
lhand -11.233635 -31.231049
lfingers 10.687531
lthumb 27.600601 12.493529
rfemur 27.140400 8.811390 49.568550
rtibia -0.000000
rfoot -11.557245 10.498620
rtoes -14.973030
lfemur -64.646103 -3.601110 -14.530186
ltibia 32.599197
lfoot -23.322449 18.570000
ltoes -18.122250
406
root 14.577585 25.233002 31.165951 10.044750 -2.363130 -11.512965
lowerback -12.849720 4.917960 4.898190
upperback 0.208306 5.760630 6.061560
thorax 7.328011 2.896050 4.304010
lowerneck -28.319401 -9.162015 -20.303551
upperneck 31.497751 -11.736240 19.807199
head 16.493999 -4.748400 8.843655
rclavicle 0.000000 0.000000
rhumerus -41.614502 22.756649 -128.101654
rradius 58.216499
rwrist -27.187500
rhand -45.052200 -32.402550
rfingers 10.687531
rthumb -5.026590 -77.332649
lclavicle 0.000000 0.000000
lhumerus -80.517754 -13.460775 144.237747
lradius 40.215149
lwrist 10.889851
lhand -12.540060 -34.670250
lfingers 10.687531
lthumb 26.343601 9.169815
rfemur 28.113300 8.634825 49.709999
rtibia -0.000000
rfoot -11.232720 10.413660
rtoes -18.152100
lfemur -64.633797 -2.212185 -15.449251
ltibia 33.687897
lfoot -22.455151 16.749901
ltoes -19.659000
407
root 14.617559 25.190701 31.412102 10.121955 -2.096565 -11.900744
lowerback -12.642840 4.953825 5.509995
upperback 0.028214 5.773095 5.971725
thorax 7.070024 2.916750 3.848685
lowerneck -28.648651 -9.326984 -20.240250
upperneck 31.814249 -11.976855 19.786350
head 16.709549 -4.842990 8.794320
rclavicle -0.000000 -0.000000
rhumerus -42.200100 22.098299 -128.501404
rradius 57.760201
rwrist -26.870998
rhand -45.208801 -30.952950
rfingers 10.687531
rthumb -5.177835 -75.880653
lclavicle -0.000000 -0.000000
lhumerus -80.798843 -13.466564 144.072906
lradius 40.210499
lwrist 10.139520
lhand -10.132485 -31.263149
lfingers 10.687531
lthumb 28.659599 12.359190
rfemur 28.921801 8.327490 50.019753
rtibia -0.000000
rfoot -10.642125 10.368299
rtoes -22.133850
lfemur -64.594200 -1.283232 -15.904800
ltibia 34.785599
lfoot -21.565050 15.183000
ltoes -20.225250
408
root 14.682555 25.159950 31.671001 10.383869 -1.854420 -11.543505
lowerback -12.890341 4.943400 5.603295
upperback -0.064927 5.752650 5.648265
thorax 7.139880 2.911185 3.469140
lowerneck -29.012550 -9.430200 -20.114401
upperneck 31.934401 -12.104910 19.692600
head 16.834801 -4.888155 8.716455
rclavicle -0.000000 -0.000000
rhumerus -42.732151 21.501150 -128.783096
rradius 57.598652
rwrist -26.112751
rhand -44.989349 -31.168951
rfingers 10.687531
rthumb -4.965945 -76.100098
lclavicle -0.000000 -0.000000
lhumerus -80.752197 -13.593285 144.015305
lradius 40.003349
lwrist 9.629789
lhand -11.285564 -33.325649
lfingers 10.687531
lthumb 27.550650 10.403625
rfemur 29.552551 8.059740 49.321648
rtibia 0.000000
rfoot -10.057529 10.455165
rtoes -22.711800
lfemur -64.439850 -0.699483 -17.218201
ltibia 35.780998
lfoot -20.922001 13.892220
ltoes -19.936649
409
root 14.651640 25.119450 31.949551 10.432995 -2.441535 -11.869844
lowerback -13.222575 5.070675 5.038620
upperback -0.106755 5.950215 5.886495
thorax 7.224854 2.993820 4.077645
lowerneck -29.068352 -9.327660 -19.854900
upperneck 32.027100 -11.958975 19.383301
head 16.828650 -4.833330 8.579730
rclavicle 0.000000 0.000000
rhumerus -43.708500 21.461700 -129.143997
rradius 57.740997
rwrist -25.677299
rhand -44.277901 -33.215248
rfingers 10.687531
rthumb -4.278870 -78.156296
lclavicle 0.000000 0.000000
lhumerus -80.884796 -13.585995 144.130051
lradius 39.972752
lwrist 9.691035
lhand -14.001420 -37.920002
lfingers 10.687531
lthumb 24.936899 6.041924
rfemur 30.451500 8.506680 49.760548
rtibia -0.000000
rfoot -9.407550 10.417274
rtoes -23.559601
lfemur -63.942596 0.806255 -17.278351
ltibia 36.569248
lfoot -19.374599 13.206511
ltoes -18.456451
410
root 14.718239 25.100849 32.181599 11.070601 -2.233920 -11.892360
lowerback -13.277804 5.075700 5.516670
upperback -0.694384 5.943645 5.647605
thorax 6.690075 3.000255 3.536460
lowerneck -28.964401 -9.225300 -19.750198
upperneck 32.351101 -11.917755 19.477800
head 16.922400 -4.798320 8.619165
rclavicle -0.000000 0.000000
rhumerus -45.013199 21.182999 -129.760651
rradius 57.492451
rwrist -25.072201
rhand -43.569153 -35.230801
rfingers 10.687531
rthumb -3.594315 -80.180099
lclavicle -0.000000 0.000000
lhumerus -81.454048 -13.704226 144.114899
lradius 40.040398
lwrist 9.814410
lhand -9.339165 -30.538200
lfingers 10.687531
lthumb 29.422501 13.007461
rfemur 30.571949 8.388705 49.454552
rtibia 0.000000
rfoot -8.590515 10.547370
rtoes -23.309101
lfemur -64.409996 1.854690 -18.208500
ltibia 36.909752
lfoot -15.651000 13.391235
ltoes -18.233398
411
root 14.758784 25.107151 32.426399 11.487285 -2.416395 -11.866620
lowerback -13.346565 5.210160 5.658990
upperback -1.007681 6.128460 5.427780
thorax 6.424875 3.093990 3.241620
lowerneck -28.902300 -9.361320 -19.935150
upperneck 32.360851 -12.141960 19.763401
head 16.973251 -4.885410 8.724795
rclavicle -0.000000 -0.000000
rhumerus -45.728550 20.701950 -130.209747
rradius 56.829750
rwrist -24.522749
rhand -43.928703 -36.109352
rfingers 10.687531
rthumb -3.941535 -81.054596
lclavicle -0.000000 -0.000000
lhumerus -81.503555 -13.469416 143.688904
lradius 39.765900
lwrist 9.133486
lhand -9.598604 -31.412699
lfingers 10.687531
lthumb 29.173050 12.158251
rfemur 30.937199 8.569560 49.176147
rtibia 0.000000
rfoot -7.327260 10.570110
rtoes -23.444399
lfemur -64.728752 2.429820 -18.569099
ltibia 37.093651
lfoot -11.361540 15.210751
ltoes -20.667150
